<svg xmlns="http://www.w3.org/2000/svg" width="100" height="100"><g fill="#f0f4f5"><rect width="20" height="20"/><rect width="20" height="20" fill="#f7f9ee" x="20"/><rect width="20" height="20" fill="#f2d8a5" x="40"/><rect width="20" height="20" fill="#ecdfcc" x="60"/><rect width="20" height="20" fill="#e7d1bc" x="80"/><rect width="20" height="20" fill="#eff9f1" y="20"/><rect width="20" height="20" fill="#fbe8e4" x="20" y="20"/><rect width="20" height="20" fill="#fedc95" x="40" y="20"/><rect width="20" height="20" fill="#f5c579" x="60" y="20"/><rect width="20" height="20" fill="#fbc460" x="80" y="20"/><rect width="20" height="20" fill="#f2f6f5" y="40"/><rect width="20" height="20" fill="#faf7ff" x="20" y="40"/><rect width="20" height="20" fill="#fecd80" x="40" y="40"/><rect width="20" height="20" fill="#f8c983" x="60" y="40"/><rect width="20" height="20" fill="#f8c778" x="80" y="40"/><rect width="20" height="20" fill="#f7eccc" y="60"/><rect width="20" height="20" fill="#f1f3ee" x="20" y="60"/><rect width="20" height="20" fill="#fad2a1" x="40" y="60"/><rect width="20" height="20" fill="#ef9e42" x="60" y="60"/><rect width="20" height="20" fill="#df8201" x="80" y="60"/><rect width="20" height="20" fill="#edda95" y="80"/><rect width="20" height="20" fill="#ffd0a6" x="20" y="80"/><rect width="20" height="20" fill="#f8ce9e" x="40" y="80"/><rect width="20" height="20" fill="#e99f40" x="60" y="80"/><rect width="20" height="20" fill="#ca7b02" x="80" y="80"/></g></svg>