<svg xmlns="http://www.w3.org/2000/svg" width="100" height="100"><g fill="#e6ebf1"><rect width="20" height="20"/><rect width="20" height="20" fill="#e3edef" x="20"/><rect width="20" height="20" fill="#927867" x="40"/><rect width="20" height="20" fill="#e1e7f3" x="60"/><rect width="20" height="20" fill="#e2e6ef" x="80"/><rect width="20" height="20" fill="#e6eaf3" y="20"/><rect width="20" height="20" fill="#e5e9f2" x="20" y="20"/><rect width="20" height="20" fill="#e1e5ee" x="40" y="20"/><rect width="20" height="20" fill="#e3e2f0" x="60" y="20"/><rect width="20" height="20" fill="#dcd9e4" x="80" y="20"/><rect width="20" height="20" fill="#ecedef" y="40"/><rect width="20" height="20" fill="#f0f2f1" x="20" y="40"/><rect width="20" height="20" fill="#eef0ef" x="40" y="40"/><rect width="20" height="20" fill="#6f452f" x="60" y="40"/><rect width="20" height="20" fill="#430b0a" x="80" y="40"/><rect width="20" height="20" fill="#eff0f4" y="60"/><rect width="20" height="20" fill="#f0f1f5" x="20" y="60"/><rect width="20" height="20" fill="#ebecf0" x="40" y="60"/><rect width="20" height="20" fill="#e5d0cf" x="60" y="60"/><rect width="20" height="20" fill="#fc6471" x="80" y="60"/><rect width="20" height="20" fill="#f2f4f3" y="80"/><rect width="20" height="20" fill="#f0f1f3" x="20" y="80"/><rect width="20" height="20" fill="#e6e7e9" x="40" y="80"/><rect width="20" height="20" fill="#ffe4e9" x="60" y="80"/><rect width="20" height="20" fill="#a03141" x="80" y="80"/></g></svg>