<svg xmlns="http://www.w3.org/2000/svg" width="100" height="100"><g fill="#000000"><rect width="20" height="20"/><rect width="20" height="20" x="20"/><rect width="20" height="20" x="40"/><rect width="20" height="20" x="60"/><rect width="20" height="20" fill="#020202" x="80"/><rect width="20" height="20" y="20"/><rect width="20" height="20" x="20" y="20"/><rect width="20" height="20" x="40" y="20"/><rect width="20" height="20" x="60" y="20"/><rect width="20" height="20" fill="#010101" x="80" y="20"/><rect width="20" height="20" y="40"/><rect width="20" height="20" x="20" y="40"/><rect width="20" height="20" x="40" y="40"/><rect width="20" height="20" x="60" y="40"/><rect width="20" height="20" fill="#080808" x="80" y="40"/><rect width="20" height="20" y="60"/><rect width="20" height="20" x="20" y="60"/><rect width="20" height="20" x="40" y="60"/><rect width="20" height="20" fill="#978b73" x="60" y="60"/><rect width="20" height="20" fill="#ad9c7e" x="80" y="60"/><rect width="20" height="20" y="80"/><rect width="20" height="20" x="20" y="80"/><rect width="20" height="20" x="40" y="80"/><rect width="20" height="20" fill="#d5c39f" x="60" y="80"/><rect width="20" height="20" fill="#ddc9a8" x="80" y="80"/></g></svg>