<svg xmlns="http://www.w3.org/2000/svg" width="100" height="100"><g fill="#403d34"><rect width="20" height="20"/><rect width="20" height="20" fill="#807a6e" x="20"/><rect width="20" height="20" fill="#737164" x="40"/><rect width="20" height="20" fill="#948e78" x="60"/><rect width="20" height="20" fill="#c8cac5" x="80"/><rect width="20" height="20" fill="#494a42" y="20"/><rect width="20" height="20" fill="#8b8b81" x="20" y="20"/><rect width="20" height="20" fill="#7e7f79" x="40" y="20"/><rect width="20" height="20" fill="#9b978b" x="60" y="20"/><rect width="20" height="20" fill="#f9faf5" x="80" y="20"/><rect width="20" height="20" fill="#808581" y="40"/><rect width="20" height="20" fill="#989993" x="20" y="40"/><rect width="20" height="20" fill="#868b85" x="40" y="40"/><rect width="20" height="20" fill="#a09f9a" x="60" y="40"/><rect width="20" height="20" fill="#fafeff" x="80" y="40"/><rect width="20" height="20" fill="#8e908d" y="60"/><rect width="20" height="20" fill="#9ea09d" x="20" y="60"/><rect width="20" height="20" fill="#959794" x="40" y="60"/><rect width="20" height="20" fill="#9fa19e" x="60" y="60"/><rect width="20" height="20" fill="#f3f4f6" x="80" y="60"/><rect width="20" height="20" fill="#959794" y="80"/><rect width="20" height="20" fill="#a2a6a7" x="20" y="80"/><rect width="20" height="20" fill="#aeb7b6" x="40" y="80"/><rect width="20" height="20" fill="#dfc0c5" x="60" y="80"/><rect width="20" height="20" fill="#d4c1c7" x="80" y="80"/></g></svg>