<svg xmlns="http://www.w3.org/2000/svg" width="100" height="100"><g fill="#c7cfdc"><rect width="20" height="20"/><rect width="20" height="20" fill="#d7dee8" x="20"/><rect width="20" height="20" fill="#d3dae4" x="40"/><rect width="20" height="20" fill="#dbe1ed" x="60"/><rect width="20" height="20" fill="#dae0ec" x="80"/><rect width="20" height="20" fill="#a6b3c4" y="20"/><rect width="20" height="20" fill="#bcc8d6" x="20" y="20"/><rect width="20" height="20" fill="#c5cdda" x="40" y="20"/><rect width="20" height="20" fill="#ccd4e1" x="60" y="20"/><rect width="20" height="20" fill="#d6deeb" x="80" y="20"/><rect width="20" height="20" fill="#949caf" y="40"/><rect width="20" height="20" fill="#b8c4d2" x="20" y="40"/><rect width="20" height="20" fill="#cdd5e2" x="40" y="40"/><rect width="20" height="20" fill="#929ca8" x="60" y="40"/><rect width="20" height="20" fill="#b6c0cc" x="80" y="40"/><rect width="20" height="20" fill="#3a2d41" y="60"/><rect width="20" height="20" fill="#a3afc5" x="20" y="60"/><rect width="20" height="20" fill="#c9c5d6" x="40" y="60"/><rect width="20" height="20" fill="#a091a6" x="60" y="60"/><rect width="20" height="20" fill="#b8bdd1" x="80" y="60"/><rect width="20" height="20" fill="#3a2d3e" y="80"/><rect width="20" height="20" fill="#969cb4" x="20" y="80"/><rect width="20" height="20" fill="#22171b" x="40" y="80"/><rect width="20" height="20" fill="#312332" x="60" y="80"/><rect width="20" height="20" fill="#a191b6" x="80" y="80"/></g></svg>