<svg xmlns="http://www.w3.org/2000/svg" width="100" height="100"><g fill="#bd8900"><rect width="20" height="20"/><rect width="20" height="20" fill="#c78d07" x="20"/><rect width="20" height="20" fill="#a2620b" x="40"/><rect width="20" height="20" fill="#d19f00" x="60"/><rect width="20" height="20" fill="#d5a302" x="80"/><rect width="20" height="20" fill="#bc8705" y="20"/><rect width="20" height="20" fill="#d9a337" x="20" y="20"/><rect width="20" height="20" fill="#c6a079" x="40" y="20"/><rect width="20" height="20" fill="#d1b000" x="60" y="20"/><rect width="20" height="20" fill="#d3c272" x="80" y="20"/><rect width="20" height="20" fill="#c09922" y="40"/><rect width="20" height="20" fill="#ecd47a" x="20" y="40"/><rect width="20" height="20" fill="#f9d9b0" x="40" y="40"/><rect width="20" height="20" fill="#ffda6c" x="60" y="40"/><rect width="20" height="20" fill="#998e10" x="80" y="40"/><rect width="20" height="20" fill="#f2d985" y="60"/><rect width="20" height="20" fill="#f5d949" x="20" y="60"/><rect width="20" height="20" fill="#f3cf31" x="40" y="60"/><rect width="20" height="20" fill="#eacf02" x="60" y="60"/><rect width="20" height="20" fill="#ecbe00" x="80" y="60"/><rect width="20" height="20" fill="#eac955" y="80"/><rect width="20" height="20" fill="#f5b900" x="20" y="80"/><rect width="20" height="20" fill="#f4b301" x="40" y="80"/><rect width="20" height="20" fill="#f1b000" x="60" y="80"/><rect width="20" height="20" fill="#e5c200" x="80" y="80"/></g></svg>